<svg width="96" height="110" viewBox="0 0 96 110" version="1.1" xmlns="http://www.w3.org/2000/svg" xmlns:xlink="http://www.w3.org/1999/xlink">
<title>if_superhero_robin_comic_hero_1380746</title>
<desc>Created using Figma</desc>
<g id="Canvas" transform="translate(1215 -6679)">
<g id="if_superhero_robin_comic_hero_1380746">
<g id="Vector">
<use xlink:href="#path0_fill" transform="translate(-1215 6679)" fill="#E8A020"/>
<mask id="mask0_outline_ins">
<use xlink:href="#path0_fill" fill="white" transform="translate(-1215 6679)"/>
</mask>
<g mask="url(#mask0_outline_ins)">
<use xlink:href="#path1_stroke_2x" transform="translate(-1215 6679)" fill="#FBFBFB"/>
</g>
</g>
</g>
</g>
<defs>
<path id="path0_fill" d="M 91.229 12.9965C 87.8473 8.89266 81.9667 7.97428 81.9667 7.97428C 81.9667 7.97428 77.5571 3.80464 70.0289 1.49946C 61.6642 -1.06186 35.6173 -0.639588 22.8695 5.10491C 10.1218 10.8494 9.19189 17.2273 8.15121 22.6995C 7.82816 24.3978 7.67241 27.4922 7.62164 31.0907C 4.88496 29.1547 2.85898 26.9292 2.85898 26.9292C 2.85898 26.9292 0.311511 30.7215 1.8183 33.4213C 3.65276 36.7095 5.40414 38.3432 6.92017 39.07C 6.75633 39.1081 6.58904 39.13 6.41713 39.115C 4.33578 38.9327 -5.80957e-07 38.5682 -5.80957e-07 38.5682C -5.80957e-07 38.5682 0.173062 43.8569 2.08136 46.2279C 3.14626 47.5512 5.61413 49.2138 8.01046 50.4252C 8.06007 51.4266 8.10852 52.2516 8.15237 52.8411C 8.27582 54.5337 8.58848 56.9842 8.93922 59.4359L 8.15467 91.6278C 8.15467 91.6393 8.15698 91.6508 8.15698 91.6624L 8.15467 91.7512C 8.08891 94.4683 10.0272 97.6215 12.4639 98.8271L 30.3897 107.72C 32.8264 108.926 37.0445 110 39.7627 110L 63.3775 110C 66.0958 110 70.3139 108.928 72.7506 107.724L 90.6763 98.8029C 93.113 97.5972 95.0525 94.3714 94.9856 91.6543L 94.1872 58.9179C 94.4906 55.1463 94.7975 51.3263 94.9867 48.9472C 95.7332 39.5731 94.6106 17.1004 91.229 12.9965ZM 87.5116 92.6442L 69.6643 101.526C 68.1171 102.291 64.9363 103.078 63.3764 103.078L 39.7615 103.078C 38.2028 103.078 35.0231 102.29 33.4598 101.515L 15.541 92.6246C 15.4244 92.5277 15.1429 92.0789 15.0771 91.8124L 16.059 51.5039C 17.395 49.9902 18.8268 48.7984 20.0302 48.4084C 20.622 48.2169 21.3789 47.8696 22.2154 47.4578C 20.0844 50.3283 18.1726 53.0938 17.7561 54.2891C 16.7235 57.2484 16.4778 59.6736 16.4778 59.6736C 16.4778 59.6736 18.3203 71.4303 20.3844 74.7011C 22.4484 77.972 24.2344 81.6767 24.2344 81.6767L 22.8915 75.803L 29.747 81.2325L 34.6124 81.2325L 49.2096 75.0023L 51.569 75.0023L 53.9284 75.0023L 68.5256 81.2325L 73.3909 81.2325L 80.2465 75.803L 78.9035 81.6767C 78.9035 81.6767 80.6895 77.972 82.7535 74.7011C 84.8176 71.4303 86.6601 59.6736 86.6601 59.6736C 86.6601 59.6736 86.4132 57.2484 85.3818 54.2891C 84.3503 51.3297 74.1593 38.7562 74.1593 38.7562L 79.71 50.4783L 79.71 52.7511C 79.71 52.7511 70 55.8732 65.4289 60.3901C 60.8578 64.907 54.2226 66.7761 54.2226 66.7761L 51.569 66.7761L 48.9153 66.7761C 48.9153 66.7761 42.2802 64.907 37.709 60.3901C 33.1379 55.8732 23.428 52.7511 23.428 52.7511L 23.428 50.4783L 25.687 45.7064C 28.8944 44.1269 31.9957 42.9351 31.9957 45.4006C 31.9957 49.5045 27.3126 50.8717 27.3126 50.8717C 27.3126 50.8717 36.1584 50.8717 45.2637 48.1362C 54.3691 45.4006 61.1335 38.0144 65.8166 36.0991C 70.4996 34.1839 79.605 35.5523 86.1086 43.7589C 86.3913 44.1154 86.659 44.4984 86.9197 44.8918L 88.0619 91.7258C 87.9996 91.9946 87.7204 92.4619 87.5116 92.6442ZM 23.0115 59.4636L 46.5363 69.6085L 44.38 73.1401L 22.7242 69.2474L 23.0115 59.4636ZM 56.6016 69.6085L 80.1265 59.4636L 80.4149 69.2474L 65.7981 71.8745L 58.758 73.1401L 56.6016 69.6085Z"/>
<path id="path1_stroke_2x" d="M 81.9667 7.97428L 81.2796 8.70088L 81.5054 8.91436L 81.8124 8.9623L 81.9667 7.97428ZM 70.0289 1.49946L 69.7361 2.45564L 70.0289 1.49946ZM 8.15121 22.6995L 9.1336 22.8864L 9.13361 22.8864L 8.15121 22.6995ZM 7.62164 31.0907L 7.04412 31.9071L 8.59475 33.004L 8.62154 31.1048L 7.62164 31.0907ZM 2.85898 26.9292L 3.59847 26.256L 2.73999 25.3129L 2.02888 26.3716L 2.85898 26.9292ZM 1.8183 33.4213L 2.69159 32.9341L 2.69151 32.9339L 1.8183 33.4213ZM 6.92017 39.07L 7.14653 40.0441L 9.92032 39.3995L 7.3525 38.1683L 6.92017 39.07ZM 6.41713 39.115L 6.32988 40.1112L 6.33021 40.1112L 6.41713 39.115ZM -5.80957e-07 38.5682L 0.0837907 37.5717L -1.03623 37.4775L -0.999466 38.6009L -5.80957e-07 38.5682ZM 2.08136 46.2279L 2.86043 45.6009L 2.86037 45.6009L 2.08136 46.2279ZM 8.01046 50.4252L 9.00923 50.3757L 8.98046 49.7951L 8.46162 49.5328L 8.01046 50.4252ZM 8.15237 52.8411L 9.14972 52.7684L 9.14961 52.767L 8.15237 52.8411ZM 8.93922 59.4359L 9.93892 59.4603L 9.94096 59.3769L 9.92914 59.2943L 8.93922 59.4359ZM 8.15467 91.6278L 7.15497 91.6034L 7.15467 91.6156L 7.15467 91.6278L 8.15467 91.6278ZM 8.15698 91.6624L 9.15664 91.6883L 9.15698 91.6753L 9.15698 91.6624L 8.15698 91.6624ZM 8.15467 91.7512L 7.15501 91.7253L 7.15497 91.727L 8.15467 91.7512ZM 12.4639 98.8271L 12.9083 97.9313L 12.9074 97.9308L 12.4639 98.8271ZM 30.3897 107.72L 29.9452 108.616L 29.9462 108.616L 30.3897 107.72ZM 72.7506 107.724L 73.1937 108.62L 73.1961 108.619L 72.7506 107.724ZM 90.6763 98.8029L 90.2328 97.9066L 90.2308 97.9076L 90.6763 98.8029ZM 94.9856 91.6543L 93.9859 91.6787L 93.9859 91.6789L 94.9856 91.6543ZM 94.1872 58.9179L 93.1904 58.8377L 93.1862 58.8899L 93.1875 58.9423L 94.1872 58.9179ZM 94.9867 48.9472L 93.9899 48.8679L 93.9899 48.868L 94.9867 48.9472ZM 87.5116 92.6442L 87.9571 93.5395L 88.0723 93.4822L 88.1692 93.3976L 87.5116 92.6442ZM 69.6643 101.526L 70.1075 102.422L 70.1098 102.421L 69.6643 101.526ZM 33.4598 101.515L 33.0153 102.411L 33.016 102.411L 33.4598 101.515ZM 15.541 92.6246L 14.9015 93.3934L 14.9916 93.4683L 15.0965 93.5204L 15.541 92.6246ZM 15.0771 91.8124L 14.0774 91.788L 14.0742 91.9219L 14.1063 92.0519L 15.0771 91.8124ZM 16.059 51.5039L 15.3092 50.8422L 15.0682 51.1154L 15.0593 51.4796L 16.059 51.5039ZM 20.0302 48.4084L 19.7223 47.457L 19.7219 47.4572L 20.0302 48.4084ZM 22.2154 47.4578L 23.0183 48.0538L 21.7736 46.5606L 22.2154 47.4578ZM 17.7561 54.2891L 18.7003 54.6185L 18.7005 54.6181L 17.7561 54.2891ZM 16.4778 59.6736L 15.4829 59.5728L 15.4699 59.7011L 15.4899 59.8285L 16.4778 59.6736ZM 24.2344 81.6767L 23.3336 82.111L 25.2093 81.4538L 24.2344 81.6767ZM 22.8915 75.803L 23.5123 75.0191L 21.2827 73.2532L 21.9166 76.0259L 22.8915 75.803ZM 29.747 81.2325L 29.1262 82.0164L 29.399 82.2325L 29.747 82.2325L 29.747 81.2325ZM 34.6124 81.2325L 34.6124 82.2325L 34.8168 82.2325L 35.0049 82.1522L 34.6124 81.2325ZM 49.2096 75.0023L 49.2096 74.0023L 49.0051 74.0023L 48.817 74.0826L 49.2096 75.0023ZM 53.9284 75.0023L 54.3209 74.0826L 54.1329 74.0023L 53.9284 74.0023L 53.9284 75.0023ZM 68.5256 81.2325L 68.133 82.1522L 68.3211 82.2325L 68.5256 82.2325L 68.5256 81.2325ZM 73.3909 81.2325L 73.3909 82.2325L 73.7389 82.2325L 74.0118 82.0164L 73.3909 81.2325ZM 80.2465 75.803L 81.2213 76.0259L 81.8552 73.2532L 79.6256 75.0191L 80.2465 75.803ZM 78.9035 81.6767L 77.9287 81.4538L 79.8043 82.111L 78.9035 81.6767ZM 86.6601 59.6736L 87.6481 59.8285L 87.6681 59.7008L 87.655 59.5723L 86.6601 59.6736ZM 74.1593 38.7562L 74.9362 38.1265L 73.2555 39.1842L 74.1593 38.7562ZM 79.71 50.4783L 80.71 50.4783L 80.71 50.2535L 80.6138 50.0503L 79.71 50.4783ZM 79.71 52.7511L 80.0161 53.7031L 80.71 53.48L 80.71 52.7511L 79.71 52.7511ZM 65.4289 60.3901L 64.726 59.6788L 65.4289 60.3901ZM 54.2226 66.7761L 54.2226 67.7761L 54.3607 67.7761L 54.4937 67.7386L 54.2226 66.7761ZM 48.9153 66.7761L 48.6442 67.7386L 48.7772 67.7761L 48.9153 67.7761L 48.9153 66.7761ZM 23.428 52.7511L 22.428 52.7511L 22.428 53.48L 23.1219 53.7031L 23.428 52.7511ZM 23.428 50.4783L 22.5241 50.0504L 22.428 50.2535L 22.428 50.4783L 23.428 50.4783ZM 25.687 45.7064L 25.2452 44.8093L 24.9324 44.9633L 24.7832 45.2785L 25.687 45.7064ZM 27.3126 50.8717L 27.0324 49.9118L 27.3126 51.8717L 27.3126 50.8717ZM 86.1086 43.7589L 85.3249 44.38L 85.3251 44.3801L 86.1086 43.7589ZM 86.9197 44.8918L 87.9194 44.8675L 87.9124 44.5795L 87.7533 44.3394L 86.9197 44.8918ZM 88.0619 91.7258L 89.0361 91.9516L 89.0647 91.8281L 89.0616 91.7014L 88.0619 91.7258ZM 23.0115 59.4636L 23.4074 58.5454L 22.0551 57.9622L 22.0119 59.4343L 23.0115 59.4636ZM 46.5363 69.6085L 47.3898 70.1296L 47.9901 69.1464L 46.9323 68.6903L 46.5363 69.6085ZM 44.38 73.1401L 44.2031 74.1244L 44.8768 74.2455L 45.2335 73.6613L 44.38 73.1401ZM 22.7242 69.2474L 21.7246 69.218L 21.6993 70.0792L 22.5473 70.2316L 22.7242 69.2474ZM 56.6016 69.6085L 56.2056 68.6903L 55.1478 69.1464L 55.7481 70.1296L 56.6016 69.6085ZM 80.1265 59.4636L 81.126 59.4342L 81.0826 57.9623L 79.7305 58.5454L 80.1265 59.4636ZM 80.4149 69.2474L 80.5918 70.2316L 81.4399 70.0792L 81.4145 69.2179L 80.4149 69.2474ZM 65.7981 71.8745L 65.6212 70.8902L 65.6212 70.8903L 65.7981 71.8745ZM 58.758 73.1401L 57.9045 73.6613L 58.2612 74.2455L 58.9349 74.1244L 58.758 73.1401ZM 92.0007 12.3606C 90.1741 10.1729 87.6443 8.78231 85.6949 8.01553C 84.7051 7.62836 83.8021 7.36639 83.1797 7.21145C 82.8615 7.13247 82.5949 7.0754 82.4201 7.04078C 82.3294 7.02286 82.2542 7.00907 82.207 7.00074C 82.1817 6.99631 82.1601 6.99265 82.1473 6.99052C 82.1401 6.98933 82.1335 6.98825 82.1299 6.98767C 82.1277 6.98732 82.1255 6.98696 82.1244 6.98679C 82.1236 6.98667 82.1228 6.98654 82.1224 6.98648C 82.1221 6.98643 82.1218 6.98638 82.1216 6.98635C 82.1213 6.9863 82.121 6.98625 81.9667 7.97428C 81.8124 8.9623 81.8121 8.96226 81.8119 8.96222C 81.8118 8.96222 81.8116 8.96218 81.8115 8.96216C 81.8115 8.96217 81.8111 8.9621 81.8112 8.96211C 81.8108 8.96206 81.8114 8.96215 81.812 8.96225C 81.8141 8.96258 81.816 8.96289 81.82 8.96356C 81.8297 8.96515 81.8415 8.96715 81.8602 8.97045C 81.9007 8.97758 81.9552 8.98753 82.0319 9.00273C 82.1918 9.03436 82.4112 9.08111 82.6971 9.15235C 83.283 9.29785 84.0615 9.52197 84.9645 9.87738C 86.8008 10.5958 88.9022 11.7163 90.4572 13.6325L 92.0007 12.3606ZM 81.9667 7.97428C 82.6538 7.24768 82.6535 7.24747 82.6533 7.24724C 82.6532 7.24715 82.6529 7.2469 82.6527 7.24671C 82.6525 7.24646 82.6518 7.24588 82.6513 7.24537C 82.6505 7.2446 82.6489 7.24307 82.6472 7.24154C 82.6445 7.23901 82.6396 7.23443 82.6342 7.22941C 82.6245 7.2204 82.6082 7.20537 82.5888 7.18771C 82.5523 7.15446 82.494 7.10204 82.4215 7.03844C 82.2811 6.91546 82.0633 6.72992 81.7866 6.50739C 81.2435 6.07089 80.4169 5.44793 79.3665 4.76331C 77.2891 3.41155 74.1797 1.72985 70.3217 0.543281L 69.7361 2.45564C 73.4063 3.57425 76.2658 5.12996 78.2752 6.43932C 79.2683 7.08525 80.0146 7.64878 80.5335 8.06612C 80.7879 8.27051 80.9734 8.42873 81.1036 8.54278C 81.1663 8.5977 81.2101 8.63711 81.2418 8.66607C 81.2566 8.67951 81.266 8.68818 81.2734 8.69509C 81.2766 8.69802 81.2781 8.69946 81.2797 8.70096C 81.2802 8.70144 81.2807 8.70192 81.2805 8.70167C 81.2805 8.70168 81.2803 8.70146 81.2803 8.70146C 81.2802 8.7014 81.28 8.70125 81.28 8.70122C 81.2798 8.70106 81.2796 8.70088 81.9667 7.97428ZM 70.3217 0.543281C 65.9617 -0.791776 57.2102 -1.31563 48.0379 -0.810985C 38.8519 -0.305579 29.0039 1.24375 22.4587 4.1932L 23.2804 6.01662C 29.4829 3.22157 39.0323 1.68752 48.1478 1.18599C 57.2771 0.683711 65.7314 1.22938 69.7361 2.45564L 70.3217 0.543281ZM 22.4587 4.1932C 15.967 7.11857 12.3725 10.2564 10.2828 13.4577C 8.23244 16.6378 7.68706 19.788 7.16882 22.5127L 9.13361 22.8864C 9.65604 20.1389 10.096 17.364 11.9576 14.5509C 13.78 11.7591 17.0244 8.83575 23.2804 6.01662L 22.4587 4.1932ZM 7.16883 22.5127C 6.83525 24.279 6.67293 27.46 6.62174 31.0766L 8.62154 31.1048C 8.67189 27.5244 8.82108 24.5167 9.1336 22.8864L 7.16883 22.5127ZM 8.19916 30.2743C 6.87187 29.337 5.73436 28.3415 4.8993 27.5556C 4.48598 27.1669 4.1627 26.8436 3.93464 26.6094C 3.82253 26.4943 3.73888 26.4063 3.6801 26.3438C 3.6516 26.3134 3.63129 26.2916 3.61669 26.2758C 3.60982 26.2684 3.60529 26.2634 3.60181 26.2596C 3.60028 26.258 3.59945 26.2571 3.59868 26.2562C 3.5984 26.2559 3.59835 26.2559 3.59821 26.2557C 3.59819 26.2557 3.59824 26.2557 3.59825 26.2558C 3.59827 26.2558 3.59833 26.2558 3.59834 26.2558C 3.5984 26.2559 3.59847 26.256 2.85898 26.9292C 2.11949 27.6023 2.11958 27.6024 2.11967 27.6025C 2.11972 27.6026 2.11982 27.6027 2.1199 27.6028C 2.12002 27.6029 2.12027 27.6032 2.1205 27.6034C 2.12085 27.6038 2.12154 27.6046 2.12224 27.6053C 2.12344 27.6067 2.12556 27.609 2.12795 27.6116C 2.1323 27.6163 2.13948 27.6241 2.14812 27.6335C 2.16453 27.6512 2.19041 27.6791 2.22266 27.7134C 2.28537 27.7801 2.38138 27.8811 2.50196 28.0049C 2.73929 28.2485 3.09355 28.6026 3.52882 29.0123C 4.39091 29.8231 5.63474 30.9085 7.04412 31.9071L 8.19916 30.2743ZM 2.85898 26.9292C 2.02888 26.3716 2.0287 26.3718 2.02852 26.3721C 2.02845 26.3722 2.02825 26.3725 2.0281 26.3727C 2.02792 26.373 2.02747 26.3737 2.0271 26.3742C 2.02657 26.375 2.02544 26.3767 2.02438 26.3783C 2.02272 26.3808 2.01955 26.3856 2.01626 26.3906C 2.01057 26.3992 2.00071 26.4143 1.9897 26.4314C 1.96949 26.4629 1.93693 26.5143 1.8996 26.5752C 1.82866 26.6912 1.72163 26.8729 1.60505 27.0879C 1.37956 27.505 1.07448 28.1361 0.82941 28.8334C 0.35409 30.1958 -0.0231892 32.1737 0.945098 33.9086L 2.69151 32.9339C 2.153 31.9691 2.29606 30.701 2.71778 29.4922C 2.92123 28.9039 3.15885 28.4183 3.36391 28.0399C 3.46262 27.8572 3.54284 27.7215 3.60532 27.6195C 3.63471 27.5715 3.65541 27.5388 3.67178 27.5134C 3.67906 27.5021 3.68333 27.4955 3.68718 27.4897C 3.68867 27.4874 3.68913 27.4867 3.6899 27.4856C 3.69006 27.4853 3.69003 27.4854 3.68994 27.4855C 3.69001 27.4854 3.68959 27.486 3.68963 27.486C 3.68956 27.4861 3.68942 27.4863 3.68938 27.4863C 3.68924 27.4865 3.68908 27.4868 2.85898 26.9292ZM 0.945014 33.9085C 2.83436 37.2951 4.71577 39.1221 6.48784 39.9717L 7.3525 38.1683C 6.09252 37.5642 4.47115 36.1239 2.69159 32.9341L 0.945014 33.9085ZM 6.6938 38.096C 6.57797 38.1241 6.56741 38.1303 6.50405 38.1188L 6.33021 40.1112C 6.61068 40.1298 6.9347 40.0921 7.14653 40.0441L 6.6938 38.096ZM 6.50438 38.1188C 5.46254 38.0276 3.85686 37.8908 2.51252 37.7768C 1.84031 37.7198 1.23309 37.6685 0.794033 37.6315C 0.574484 37.613 0.396917 37.598 0.274273 37.5877C 0.212942 37.5825 0.16532 37.5785 0.133046 37.5758C 0.116905 37.5745 0.10459 37.5734 0.0963187 37.5727C 0.0921806 37.5724 0.0890485 37.5721 0.0869543 37.5719C 0.0859062 37.5718 0.0851152 37.5718 0.084588 37.5717C 0.0843239 37.5717 0.0841245 37.5717 0.0839921 37.5717C 0.0839256 37.5717 0.0838752 37.5717 0.0838419 37.5717C 0.0838081 37.5717 0.0837907 37.5717 -5.80957e-07 38.5682C -0.0837919 39.5646 -0.0837762 39.5646 -0.0837439 39.5646C -0.0837112 39.5646 -0.0836625 39.5646 -0.0835971 39.5647C -0.0834657 39.5647 -0.0832696 39.5647 -0.0830077 39.5647C -0.0824826 39.5647 -0.0816983 39.5648 -0.0806545 39.5649C -0.0785648 39.5651 -0.0754462 39.5653 -0.0713171 39.5657C -0.0630545 39.5664 -0.0507682 39.5674 -0.0346454 39.5688C -0.00239081 39.5715 0.0451711 39.5755 0.106461 39.5806C 0.229061 39.591 0.406487 39.6059 0.625938 39.6244C 1.06488 39.6615 1.67169 39.7127 2.3436 39.7697C 3.68748 39.8836 5.29037 40.0202 6.32988 40.1112L 6.50438 38.1188ZM -5.80957e-07 38.5682C -0.999466 38.6009 -0.999459 38.601 -0.999453 38.6013C -0.999449 38.6014 -0.999442 38.6016 -0.999435 38.6018C -0.999426 38.6021 -0.999406 38.6026 -0.999388 38.6032C -0.999358 38.604 -0.999301 38.6057 -0.99924 38.6074C -0.999133 38.6104 -0.998943 38.6157 -0.998715 38.6216C -0.998292 38.6327 -0.997571 38.6506 -0.996621 38.6722C -0.994796 38.7135 -0.991696 38.7778 -0.987235 38.8566C -0.978506 39.0104 -0.963279 39.241 -0.93943 39.5177C -0.892289 40.0624 -0.805876 40.8404 -0.660112 41.6804C -0.375617 43.3145 0.175491 45.4548 1.30234 46.8549L 2.86037 45.6009C 2.07893 44.63 1.58936 42.9405 1.31025 41.3374C 1.17421 40.5589 1.09809 39.8665 1.05315 39.3455C 1.03095 39.0892 1.01775 38.8881 1.00956 38.7434C 1.00556 38.6731 1.00308 38.6214 1.00144 38.5841C 1.00066 38.5664 1.00017 38.5543 0.999823 38.5452C 0.999665 38.5411 0.999578 38.5386 0.999504 38.5366C 0.999475 38.5357 0.999466 38.5355 0.999452 38.5351C 0.999448 38.535 0.999449 38.535 0.99945 38.535C 0.999451 38.535 0.999455 38.5352 0.999455 38.5352C 0.99946 38.5353 0.999464 38.5354 -5.80957e-07 38.5682ZM 1.30228 46.8548C 2.50724 48.3522 5.13714 50.0932 7.55929 51.3176L 8.46162 49.5328C 6.09111 48.3344 3.78529 46.7502 2.86043 45.6009L 1.30228 46.8548ZM 7.01168 50.4747C 7.06153 51.4807 7.11073 52.318 7.15512 52.9153L 9.14961 52.767C 9.10632 52.1852 9.0586 51.3726 9.00923 50.3757L 7.01168 50.4747ZM 7.15501 52.9139C 7.2808 54.6334 7.59751 57.1183 7.9493 59.5776L 9.92914 59.2943C 9.57945 56.8501 9.27083 54.434 9.14972 52.7684L 7.15501 52.9139ZM 7.93952 59.4116L 7.15497 91.6034L 9.15438 91.6521L 9.93892 59.4603L 7.93952 59.4116ZM 7.15467 91.6278C 7.15467 91.6633 7.15643 91.6925 7.15783 91.7112C 7.15855 91.7207 7.15926 91.7286 7.15977 91.734C 7.16019 91.7385 7.16064 91.7431 7.16079 91.7445C 7.16098 91.7465 7.16081 91.7448 7.16061 91.7427C 7.16038 91.7402 7.15992 91.7351 7.15942 91.7285C 7.15845 91.7155 7.15698 91.6921 7.15698 91.6624L 9.15698 91.6624C 9.15698 91.6268 9.15522 91.5976 9.15382 91.579C 9.15311 91.5694 9.15239 91.5615 9.15189 91.5561C 9.15146 91.5516 9.15101 91.547 9.15087 91.5456C 9.15067 91.5436 9.15084 91.5453 9.15104 91.5474C 9.15128 91.5499 9.15174 91.555 9.15224 91.5617C 9.1532 91.5746 9.15467 91.598 9.15467 91.6278L 7.15467 91.6278ZM 7.15732 91.6364L 7.15501 91.7253L 9.15434 91.7772L 9.15664 91.6883L 7.15732 91.6364ZM 7.15497 91.727C 7.07961 94.8404 9.24179 98.3486 12.0204 99.7234L 12.9074 97.9308C 10.8126 96.8944 9.09821 94.0961 9.15438 91.7754L 7.15497 91.727ZM 12.0195 99.7229L 29.9452 108.616L 30.8341 106.824L 12.9083 97.9313L 12.0195 99.7229ZM 29.9462 108.616C 32.5054 109.883 36.8743 111 39.7627 111L 39.7627 109C 37.2146 109 33.1473 107.969 30.8331 106.824L 29.9462 108.616ZM 39.7627 111L 63.3775 111L 63.3775 109L 39.7627 109L 39.7627 111ZM 63.3775 111C 66.2655 111 70.6343 109.885 73.1937 108.62L 72.3074 106.827C 69.9934 107.971 65.9261 109 63.3775 109L 63.3775 111ZM 73.1961 108.619L 91.1219 99.6982L 90.2308 97.9076L 72.305 106.828L 73.1961 108.619ZM 91.1198 99.6992C 93.9071 98.3201 96.0617 94.7338 95.9853 91.6297L 93.9859 91.6789C 94.0432 94.0089 92.319 96.8744 90.2328 97.9066L 91.1198 99.6992ZM 95.9853 91.6299L 95.1869 58.8935L 93.1875 58.9423L 93.9859 91.6787L 95.9853 91.6299ZM 95.184 58.9981C 95.4874 55.2265 95.7943 51.406 95.9836 49.0265L 93.9899 48.868C 93.8007 51.2466 93.4938 55.0662 93.1904 58.8377L 95.184 58.9981ZM 95.9836 49.0266C 96.3594 44.294 96.2648 36.2509 95.6524 28.9123C 95.3455 25.2407 94.9039 21.6969 94.3281 18.8298C 94.0382 17.3898 93.703 16.0744 93.3375 15.0097C 92.9717 13.9464 92.5375 13.012 92.0007 12.3606L 90.4572 13.6325C 90.7658 14.007 91.1065 14.6726 91.4464 15.6604C 91.7867 16.6468 92.0881 17.8336 92.3673 19.224C 92.9298 22.0177 93.3562 25.4475 93.6594 29.0788C 94.2671 36.346 94.3605 44.2263 93.9899 48.8679L 95.9836 49.0266ZM 87.0661 91.7489L 69.2188 100.63L 70.1098 102.421L 87.9571 93.5395L 87.0661 91.7489ZM 69.2211 100.629C 68.5122 100.983 67.4327 101.335 66.2853 101.618C 65.1396 101.901 64.0742 102.081 63.3764 102.078L 63.3764 104.078C 64.2385 104.074 65.5434 103.86 66.7649 103.559C 67.9847 103.257 69.2692 102.834 70.1075 102.422L 69.2211 100.629ZM 63.3764 102.078L 39.7615 102.078L 39.7615 104.078L 63.3764 104.078L 63.3764 102.078ZM 39.7615 102.078C 39.0645 102.081 38 101.901 36.853 101.616C 35.7041 101.332 34.6207 100.977 33.9035 100.619L 33.016 102.411C 33.8622 102.828 35.1503 103.254 36.3718 103.557C 37.5951 103.86 38.8999 104.074 39.7615 104.078L 39.7615 102.078ZM 33.9042 100.62L 15.9854 91.7288L 15.0965 93.5204L 33.0153 102.411L 33.9042 100.62ZM 16.1804 91.8557C 16.2063 91.8773 16.2239 91.8948 16.2324 91.9035C 16.2417 91.9129 16.2471 91.9191 16.2484 91.9207C 16.253 91.9256 16.2474 91.9202 16.2356 91.9038C 16.214 91.8742 16.1836 91.8286 16.1509 91.7733C 16.1149 91.7129 16.0936 91.6734 16.0687 91.6186C 16.0449 91.5671 16.0432 91.5533 16.048 91.5728L 14.1063 92.0519C 14.1748 92.3297 14.3219 92.6095 14.4291 92.7909C 14.4877 92.8895 14.5628 93.0039 14.6215 93.0848C 14.6725 93.1544 14.772 93.2858 14.9015 93.3934L 16.1804 91.8557ZM 16.0768 91.8367L 17.0587 51.5283L 15.0593 51.4796L 14.0774 91.788L 16.0768 91.8367ZM 16.8087 52.1657C 18.1222 50.6775 19.4045 49.6624 20.3385 49.3597L 19.7219 47.4572C 18.2491 47.9344 16.6678 49.303 15.3092 50.8422L 16.8087 52.1657ZM 20.338 49.3599C 20.9851 49.1487 21.8083 48.7727 22.6571 48.3549L 21.7736 46.5606C 20.9495 46.9666 20.259 47.2852 19.7223 47.457L 20.338 49.3599ZM 21.4124 46.8617C 20.3421 48.3035 19.3162 49.734 18.5097 50.9486C 17.7227 52.134 17.0679 53.2251 16.8118 53.96L 18.7005 54.6181C 18.8609 54.1578 19.3702 53.2685 20.176 52.0547C 20.9622 50.8701 21.9577 49.4825 23.0183 48.0538L 21.4124 46.8617ZM 16.812 53.9596C 16.28 55.4882 15.9428 56.9036 15.7483 57.8996C 15.6498 58.4048 15.5827 58.8254 15.5424 59.1067C 15.5218 59.2508 15.5068 59.3678 15.4976 59.4433C 15.4929 59.4827 15.4891 59.5152 15.4869 59.5353C 15.4857 59.5462 15.4847 59.5556 15.4841 59.5611C 15.4838 59.5642 15.4835 59.5671 15.4833 59.5687C 15.4832 59.5697 15.4831 59.5707 15.4831 59.5712C 15.483 59.5715 15.483 59.5719 15.483 59.5721C 15.4829 59.5722 15.4829 59.5724 15.4829 59.5725C 15.4829 59.5726 15.4829 59.5728 16.4778 59.6736C 17.4727 59.7744 17.4727 59.7746 17.4727 59.7747C 17.4727 59.7747 17.4727 59.7748 17.4726 59.7749C 17.4727 59.7749 17.4726 59.7752 17.4726 59.7752C 17.4726 59.7753 17.4726 59.7752 17.4726 59.775C 17.4727 59.7742 17.4728 59.7736 17.4729 59.7721C 17.4734 59.7682 17.4739 59.7636 17.4747 59.756C 17.4766 59.7391 17.4791 59.7166 17.4831 59.6839C 17.4914 59.6153 17.5037 59.5197 17.5222 59.3902C 17.5603 59.1243 17.6192 58.7536 17.7112 58.2827C 17.8977 57.3262 18.1997 56.0494 18.7003 54.6185L 16.812 53.9596ZM 16.4778 59.6736C 15.4899 59.8285 15.4899 59.8286 15.4899 59.8287C 15.4899 59.8288 15.4899 59.829 15.49 59.8292C 15.49 59.8296 15.4901 59.8303 15.4903 59.8311C 15.4905 59.8326 15.4909 59.835 15.4914 59.838C 15.4923 59.8438 15.4937 59.8528 15.4955 59.8643C 15.4991 59.887 15.5046 59.9213 15.5117 59.9655C 15.5258 60.0531 15.547 60.1834 15.5745 60.3489C 15.6292 60.6785 15.7102 61.1561 15.8134 61.7367C 16.0192 62.8947 16.3174 64.4839 16.6793 66.1707C 17.0411 67.8558 17.4741 69.6693 17.9444 71.2574C 18.4093 72.8259 18.9429 74.2907 19.5387 75.2348L 21.2301 74.1675C 20.7938 73.4761 20.3231 72.2448 19.862 70.689C 19.4063 69.1528 18.9917 67.4138 18.6348 65.7509C 18.2781 64.0897 17.9867 62.5353 17.7825 61.3867C 17.6807 60.814 17.6016 60.3476 17.5475 60.0215C 17.5206 59.8591 17.5001 59.7336 17.4863 59.6474C 17.4794 59.6047 17.4743 59.5726 17.4708 59.5506C 17.469 59.5397 17.4678 59.5318 17.4669 59.5263C 17.4665 59.5237 17.4662 59.5218 17.466 59.5204C 17.4659 59.5198 17.4658 59.5194 17.4658 59.5191C 17.4658 59.5189 17.4657 59.5189 17.4657 59.5188C 17.4657 59.5188 17.4657 59.5188 16.4778 59.6736ZM 19.5387 75.2348C 20.5554 76.8452 21.4989 78.5555 22.199 79.8822C 22.5478 80.5432 22.8308 81.0992 23.0291 81.4948C 23.1277 81.6915 23.2037 81.8453 23.256 81.9518C 23.2819 82.0045 23.3013 82.0443 23.3146 82.0717C 23.3211 82.0851 23.3259 82.0949 23.3292 82.1018C 23.3308 82.1051 23.3319 82.1074 23.3327 82.109C 23.3331 82.1098 23.3333 82.1103 23.3335 82.1107C 23.3336 82.1108 23.3336 82.1109 23.3336 82.111C 23.3337 82.111 23.3337 82.111 23.3337 82.111C 23.3337 82.111 23.3336 82.111 24.2344 81.6767C 25.1352 81.2424 25.1352 81.2424 25.1351 81.2423C 25.1351 81.2423 25.1351 81.2422 25.135 81.2421C 25.135 81.2419 25.1348 81.2417 25.1347 81.2414C 25.1345 81.2409 25.134 81.24 25.1335 81.239C 25.1326 81.2371 25.1311 81.234 25.1293 81.2302C 25.1257 81.2228 25.1202 81.2114 25.1131 81.1969C 25.0993 81.1684 25.0783 81.1254 25.0513 81.0704C 24.9979 80.9616 24.9182 80.8004 24.8171 80.5987C 24.616 80.1975 24.3235 79.6228 23.9678 78.9488C 23.2589 77.6055 22.2774 75.8279 21.2301 74.1675L 19.5387 75.2348ZM 25.2093 81.4538L 23.8663 75.5801L 21.9166 76.0259L 23.2596 81.8996L 25.2093 81.4538ZM 22.2706 76.5869L 29.1262 82.0164L 30.3679 80.4486L 23.5123 75.0191L 22.2706 76.5869ZM 29.747 82.2325L 34.6124 82.2325L 34.6124 80.2325L 29.747 80.2325L 29.747 82.2325ZM 35.0049 82.1522L 49.6021 75.922L 48.817 74.0826L 34.2198 80.3128L 35.0049 82.1522ZM 49.2096 76.0023L 51.569 76.0023L 51.569 74.0023L 49.2096 74.0023L 49.2096 76.0023ZM 51.569 76.0023L 53.9284 76.0023L 53.9284 74.0023L 51.569 74.0023L 51.569 76.0023ZM 53.5358 75.922L 68.133 82.1522L 68.9181 80.3128L 54.3209 74.0826L 53.5358 75.922ZM 68.5256 82.2325L 73.3909 82.2325L 73.3909 80.2325L 68.5256 80.2325L 68.5256 82.2325ZM 74.0118 82.0164L 80.8673 76.5869L 79.6256 75.0191L 72.7701 80.4486L 74.0118 82.0164ZM 79.2716 75.5801L 77.9287 81.4538L 79.8783 81.8996L 81.2213 76.0259L 79.2716 75.5801ZM 78.9035 81.6767C 79.8043 82.111 79.8043 82.111 79.8043 82.111C 79.8043 82.111 79.8043 82.111 79.8043 82.111C 79.8043 82.1109 79.8044 82.1108 79.8044 82.1107C 79.8046 82.1103 79.8049 82.1098 79.8052 82.109C 79.806 82.1074 79.8071 82.1051 79.8087 82.1018C 79.8121 82.0949 79.8168 82.0851 79.8233 82.0717C 79.8367 82.0443 79.8561 82.0045 79.8819 81.9518C 79.9342 81.8453 80.0102 81.6915 80.1088 81.4948C 80.3071 81.0992 80.5901 80.5432 80.9389 79.8822C 81.639 78.5555 82.5825 76.8452 83.5992 75.2348L 81.9079 74.1675C 80.8606 75.8279 79.879 77.6055 79.1701 78.9488C 78.8144 79.6228 78.5219 80.1975 78.3208 80.5987C 78.2197 80.8004 78.1401 80.9616 78.0866 81.0704C 78.0596 81.1254 78.0386 81.1684 78.0248 81.1969C 78.0177 81.2114 78.0122 81.2228 78.0086 81.2302C 78.0068 81.234 78.0053 81.2371 78.0044 81.239C 78.0039 81.24 78.0035 81.2409 78.0032 81.2414C 78.0031 81.2417 78.003 81.2419 78.0029 81.2421C 78.0028 81.2422 78.0028 81.2423 78.0028 81.2423C 78.0027 81.2424 78.0027 81.2424 78.9035 81.6767ZM 83.5992 75.2348C 84.195 74.2907 84.7286 72.8259 85.1935 71.2574C 85.6638 69.6693 86.0968 67.8558 86.4586 66.1707C 86.8206 64.4839 87.1187 62.8947 87.3246 61.7367C 87.4277 61.1561 87.5087 60.6785 87.5634 60.3489C 87.5909 60.1834 87.6121 60.0531 87.6262 59.9655C 87.6333 59.9213 87.6388 59.887 87.6424 59.8643C 87.6442 59.8528 87.6457 59.8438 87.6466 59.838C 87.647 59.835 87.6474 59.8326 87.6477 59.8311C 87.6478 59.8303 87.6479 59.8296 87.6479 59.8292C 87.648 59.829 87.648 59.8288 87.648 59.8287C 87.6481 59.8286 87.6481 59.8285 86.6601 59.6736C 85.6722 59.5188 85.6722 59.5188 85.6722 59.5188C 85.6722 59.5189 85.6722 59.5189 85.6721 59.5191C 85.6721 59.5194 85.672 59.5198 85.6719 59.5204C 85.6717 59.5218 85.6714 59.5237 85.671 59.5263C 85.6701 59.5318 85.6689 59.5397 85.6672 59.5506C 85.6637 59.5726 85.6585 59.6047 85.6517 59.6474C 85.6378 59.7336 85.6174 59.8591 85.5904 60.0215C 85.5363 60.3476 85.4572 60.814 85.3554 61.3867C 85.1513 62.5353 84.8598 64.0897 84.5031 65.7509C 84.1463 67.4138 83.7316 69.1528 83.2759 70.689C 82.8149 72.2448 82.3441 73.4761 81.9079 74.1675L 83.5992 75.2348ZM 86.6601 59.6736C 87.655 59.5723 87.655 59.5722 87.655 59.572C 87.655 59.5719 87.6549 59.5718 87.6549 59.5716C 87.6549 59.5715 87.6549 59.5711 87.6548 59.5707C 87.6548 59.5702 87.6547 59.5692 87.6546 59.5682C 87.6544 59.5667 87.6541 59.5637 87.6538 59.5606C 87.6532 59.5551 87.6522 59.5457 87.651 59.5349C 87.6487 59.5148 87.645 59.4823 87.6402 59.4429C 87.631 59.3674 87.6159 59.2504 87.5953 59.1064C 87.5549 58.8251 87.4877 58.4046 87.3892 57.8994C 87.1945 56.9035 86.8574 55.4883 86.3261 53.96L 84.4375 54.6182C 84.9376 56.0492 85.2397 57.3263 85.4263 58.2828C 85.5184 58.7538 85.5775 59.1246 85.6156 59.3905C 85.6342 59.5201 85.6465 59.6157 85.6548 59.6843C 85.6588 59.717 85.6614 59.7396 85.6633 59.7564C 85.6641 59.7641 85.6646 59.7687 85.665 59.7725C 85.6652 59.7741 85.6653 59.7747 85.6653 59.7755C 85.6654 59.7757 85.6654 59.7757 85.6654 59.7756C 85.6654 59.7757 85.6653 59.7753 85.6653 59.7754C 85.6653 59.7753 85.6653 59.7752 85.6653 59.7752C 85.6653 59.775 85.6653 59.7749 86.6601 59.6736ZM 86.3261 53.96C 86.0153 53.0684 85.0979 51.6133 84.0162 50.0457C 82.906 48.4369 81.5215 46.5688 80.1792 44.8069C 78.8365 43.0445 77.5244 41.3727 76.5513 40.1457C 76.0642 39.5315 75.6602 39.0265 75.379 38.6762C 75.2381 38.5008 75.1274 38.3633 75.0522 38.2702C 75.0146 38.2235 74.9855 38.1875 74.9661 38.1635C 74.9563 38.1514 74.9488 38.1422 74.9439 38.1361C 74.9414 38.133 74.9395 38.1306 74.9382 38.129C 74.9375 38.1282 74.937 38.1276 74.9367 38.1272C 74.9365 38.127 74.9364 38.1268 74.9363 38.1267C 74.9362 38.1266 74.9362 38.1265 74.1593 38.7562C 73.3824 39.3859 73.3825 39.3859 73.3825 39.386C 73.3826 39.3861 73.3827 39.3862 73.3828 39.3863C 73.3831 39.3867 73.3835 39.3872 73.3841 39.388C 73.3853 39.3895 73.3871 39.3916 73.3895 39.3946C 73.3943 39.4006 73.4015 39.4094 73.411 39.4212C 73.4302 39.445 73.4586 39.48 73.4958 39.5261C 73.5704 39.6186 73.6796 39.7542 73.8194 39.9283C 74.0995 40.2772 74.4998 40.7776 74.9843 41.3884C 75.9542 42.6115 77.2543 44.268 78.5883 46.0189C 79.9227 47.7703 81.2793 49.6004 82.37 51.1815C 83.4893 52.8037 84.2325 54.0301 84.4375 54.6182L 86.3261 53.96ZM 73.2555 39.1842L 78.8062 50.9062L 80.6138 50.0503L 75.0631 38.3282L 73.2555 39.1842ZM 78.71 50.4783L 78.71 52.7511L 80.71 52.7511L 80.71 50.4783L 78.71 50.4783ZM 79.71 52.7511C 79.4039 51.7991 79.4037 51.7992 79.4035 51.7993C 79.4034 51.7993 79.4031 51.7994 79.4029 51.7995C 79.4025 51.7996 79.4018 51.7998 79.401 51.8001C 79.3997 51.8005 79.3974 51.8012 79.3947 51.8021C 79.3896 51.8038 79.3815 51.8064 79.3716 51.8096C 79.3523 51.8159 79.3225 51.8257 79.2849 51.8382C 79.2111 51.8627 79.0997 51.9001 78.9592 51.9483C 78.6813 52.0437 78.2729 52.1872 77.7743 52.3717C 76.7837 52.7383 75.3959 53.2822 73.8744 53.9644C 70.8561 55.3182 67.1461 57.2874 64.726 59.6788L 66.1318 61.1014C 68.2828 58.9759 71.7134 57.1256 74.6929 55.7892C 76.1702 55.1263 77.4955 54.6073 78.4684 54.2474C 78.9516 54.0686 79.3375 53.9329 79.6084 53.84C 79.7424 53.794 79.8441 53.7599 79.9147 53.7364C 79.9493 53.7249 79.9746 53.7166 79.9924 53.7108C 80.0009 53.7081 80.0068 53.7061 80.0111 53.7047C 80.0131 53.7041 80.0144 53.7037 80.0154 53.7034C 80.0158 53.7032 80.0159 53.7032 80.0162 53.7031C 80.0162 53.7031 80.0162 53.7031 80.0162 53.7031C 80.0162 53.7031 80.0161 53.7031 79.71 52.7511ZM 64.726 59.6788C 62.5392 61.8517 59.8838 63.3561 57.6917 64.3694C 56.6065 64.8721 55.6773 65.2298 54.9967 65.4709C 54.6615 65.5898 54.4013 65.6749 54.2163 65.7331C 54.1262 65.7615 54.0603 65.7815 54.013 65.7955C 53.9906 65.8022 53.9752 65.8067 53.9637 65.81C 53.9585 65.8115 53.9555 65.8124 53.9529 65.8131C 53.9518 65.8134 53.9515 65.8135 53.951 65.8137C 53.9508 65.8137 53.9508 65.8137 53.9509 65.8137C 53.9509 65.8137 53.9511 65.8136 53.9511 65.8136C 53.9513 65.8136 53.9514 65.8135 54.2226 66.7761C 54.4937 67.7386 54.494 67.7385 54.4942 67.7385C 54.4943 67.7384 54.4946 67.7384 54.4949 67.7383C 54.4952 67.7382 54.4959 67.738 54.4966 67.7378C 54.4977 67.7375 54.4998 67.7369 54.502 67.7363C 54.5057 67.7352 54.5123 67.7333 54.5198 67.7311C 54.5337 67.7271 54.5562 67.7206 54.5834 67.7125C 54.6356 67.6969 54.7166 67.6723 54.8169 67.6408C 55.0126 67.5792 55.3066 67.4829 55.6648 67.356C 56.3711 67.1056 57.3865 66.7137 58.5315 66.1845C 60.7997 65.134 63.7475 63.4454 66.1318 61.1014L 64.726 59.6788ZM 54.2226 65.7761L 51.569 65.7761L 51.569 67.7761L 54.2226 67.7761L 54.2226 65.7761ZM 51.569 65.7761L 48.9153 65.7761L 48.9153 67.7761L 51.569 67.7761L 51.569 65.7761ZM 48.9153 66.7761C 49.1865 65.8135 49.1867 65.8136 49.1868 65.8136C 49.1869 65.8136 49.187 65.8137 49.187 65.8137C 49.1871 65.8137 49.1871 65.8137 49.187 65.8137C 49.1865 65.8135 49.1861 65.8134 49.1851 65.8131C 49.1824 65.8124 49.1794 65.8115 49.1742 65.81C 49.1627 65.8067 49.1474 65.8022 49.1249 65.7955C 49.0777 65.7815 49.0117 65.7615 48.9216 65.7331C 48.7366 65.6749 48.4765 65.5898 48.1413 65.4709C 47.4606 65.2298 46.5315 64.8721 45.4463 64.3694C 43.2541 63.3561 40.5987 61.8517 38.4119 59.6788L 37.0061 61.1014C 39.3904 63.4454 42.3382 65.134 44.6064 66.1845C 45.7514 66.7137 46.7668 67.1056 47.4731 67.356C 47.8313 67.4829 48.1253 67.5792 48.321 67.6408C 48.4213 67.6723 48.5024 67.6969 48.5545 67.7125C 48.5818 67.7206 48.6043 67.7271 48.6181 67.7311C 48.6256 67.7333 48.6322 67.7352 48.636 67.7363C 48.6381 67.7369 48.6402 67.7375 48.6413 67.7378C 48.642 67.738 48.6427 67.7382 48.6431 67.7383C 48.6433 67.7384 48.6436 67.7384 48.6437 67.7385C 48.644 67.7385 48.6442 67.7386 48.9153 66.7761ZM 38.4119 59.6788C 35.9918 57.2874 32.2818 55.3182 29.2636 53.9644C 27.742 53.2822 26.3542 52.7383 25.3636 52.3717C 24.865 52.1872 24.4567 52.0437 24.1787 51.9483C 24.0382 51.9001 23.9269 51.8627 23.8531 51.8382C 23.8154 51.8257 23.7856 51.8159 23.7664 51.8096C 23.7564 51.8064 23.7483 51.8038 23.7432 51.8021C 23.7405 51.8012 23.7382 51.8005 23.7369 51.8001C 23.7361 51.7998 23.7354 51.7996 23.735 51.7995C 23.7348 51.7994 23.7346 51.7993 23.7344 51.7993C 23.7342 51.7992 23.7341 51.7991 23.428 52.7511C 23.1219 53.7031 23.1218 53.7031 23.1217 53.7031C 23.1217 53.7031 23.1217 53.7031 23.1218 53.7031C 23.122 53.7032 23.1222 53.7032 23.1226 53.7034C 23.1236 53.7037 23.1248 53.7041 23.1268 53.7047C 23.1311 53.7061 23.137 53.7081 23.1455 53.7108C 23.1633 53.7166 23.1886 53.7249 23.2232 53.7364C 23.2938 53.7599 23.3955 53.794 23.5295 53.84C 23.8004 53.9329 24.1864 54.0686 24.6695 54.2474C 25.6424 54.6073 26.9678 55.1263 28.4451 55.7892C 31.4246 57.1256 34.8551 58.9759 37.0061 61.1014L 38.4119 59.6788ZM 24.428 52.7511L 24.428 50.4783L 22.428 50.4783L 22.428 52.7511L 24.428 52.7511ZM 24.3318 50.9061L 26.5908 46.1343L 24.7832 45.2785L 22.5241 50.0504L 24.3318 50.9061ZM 26.1288 46.6035C 27.749 45.8056 29.1963 45.1841 30.2013 45.0242C 30.7158 44.9423 30.9051 45.0182 30.9359 45.0372C 30.9894 45.058 30.9276 44.9872 30.9458 45.055C 30.9945 45.1452 31.0002 45.1876 30.9957 45.4006L 32.9957 45.4006C 32.9957 44.5721 32.721 43.7885 31.9861 43.3351C 31.3351 42.9335 30.5487 42.9437 29.8869 43.049C 28.5395 43.2635 26.8324 44.0276 25.2452 44.8093L 26.1288 46.6035ZM 30.9957 45.4006C 30.9957 47.0148 30.0909 48.118 29.0645 48.8675C 28.5448 49.2508 28.0551 49.498 27.6431 49.678C 27.4467 49.7644 27.2974 49.8208 27.1797 49.8624C 27.1253 49.8818 27.0892 49.8937 27.0594 49.9032C 27.0467 49.9073 27.0401 49.9094 27.0334 49.9114C 27.0311 49.9121 27.0308 49.9122 27.0296 49.9126C 27.0295 49.9126 27.0301 49.9124 27.0302 49.9124C 27.03 49.9125 27.0312 49.9121 27.0311 49.9121C 27.0313 49.9121 27.0316 49.912 27.0317 49.912C 27.032 49.9119 27.0324 49.9118 27.3126 50.8717C 27.5929 51.8316 27.5933 51.8315 27.5937 51.8314C 27.5938 51.8313 27.5943 51.8312 27.5946 51.8311C 27.595 51.831 27.596 51.8307 27.5968 51.8305C 27.5978 51.8302 27.6002 51.8294 27.6024 51.8288C 27.6057 51.8278 27.6122 51.8259 27.6187 51.8239C 27.6297 51.8205 27.6494 51.8144 27.671 51.8074C 27.7099 51.7949 27.7744 51.7735 27.848 51.7474C 27.9864 51.6983 28.203 51.6158 28.4455 51.5099C 28.9117 51.3053 29.5928 50.9542 30.2438 50.4828C 31.5589 49.5226 32.9957 47.8903 32.9957 45.4006L 30.9957 45.4006ZM 27.3126 50.8717C 27.3126 51.8717 27.3128 51.8717 27.313 51.8717C 27.3131 51.8717 27.3134 51.8717 27.3136 51.8717C 27.314 51.8717 27.3147 51.8717 27.3154 51.8717C 27.3167 51.8717 27.319 51.8717 27.3215 51.8717C 27.3262 51.8717 27.3338 51.8716 27.3432 51.8716C 27.361 51.8715 27.389 51.8713 27.4242 51.871C 27.4929 51.8703 27.5977 51.8689 27.7311 51.8661C 27.9945 51.8607 28.3873 51.8497 28.881 51.828C 29.8613 51.7848 31.2803 51.6974 32.9752 51.5246C 36.3494 51.1798 40.9308 50.4795 45.5515 49.0939L 44.976 47.1785C 40.4913 48.5284 36.0971 49.1958 32.7721 49.5349C 31.1174 49.704 29.7559 49.7876 28.7931 49.8299C 28.3153 49.851 27.9459 49.8613 27.6899 49.8666C 27.5637 49.8692 27.4695 49.8704 27.4042 49.8711C 27.3724 49.8714 27.3495 49.8715 27.3334 49.8716C 27.3257 49.8717 27.3205 49.8717 27.3166 49.8717C 27.3149 49.8717 27.3139 49.8717 27.313 49.8717C 27.3127 49.8717 27.3126 49.8717 27.3124 49.8717C 27.3124 49.8717 27.3124 49.8717 27.3124 49.8717C 27.3125 49.8717 27.3126 49.8717 27.3126 50.8717ZM 45.5515 49.0939C 50.2331 47.6774 54.3427 45.0673 57.778 42.625C 59.4975 41.4023 61.0637 40.2161 62.4834 39.2224C 63.8987 38.2314 65.1036 37.467 66.1951 37.0247L 65.438 35.1735C 64.188 35.6889 62.7913 36.566 61.3365 37.584C 59.8863 38.5994 58.3142 39.7899 56.619 40.995C 53.2251 43.4086 49.3997 45.8594 44.976 47.1785L 45.5515 49.0939ZM 66.1951 37.0247C 70.4035 35.3036 79.0533 36.4662 85.3249 44.38L 86.8924 43.1378C 80.1567 34.6384 70.5957 33.0642 65.438 35.1735L 66.1951 37.0247ZM 85.3251 44.3801C 85.5893 44.7127 85.8323 45.0611 86.0862 45.4443L 87.7533 44.3394C 87.4857 43.9357 87.1933 43.518 86.8922 43.1376L 85.3251 44.3801ZM 85.92 44.9162L 87.0622 91.7502L 89.0616 91.7014L 87.9194 44.8675L 85.92 44.9162ZM 87.0878 91.5C 87.0904 91.4649 87.0616 91.5764 86.9837 91.7038C 86.9081 91.8327 86.8245 91.9094 86.854 91.8909L 88.1692 93.3976C 88.3894 93.2054 88.5749 92.9395 88.6997 92.7311C 88.8246 92.5225 88.9706 92.2345 89.0361 91.9516L 87.0878 91.5ZM 22.6155 60.3819L 46.1403 70.5268L 46.9323 68.6903L 23.4074 58.5454L 22.6155 60.3819ZM 45.6828 69.0874L 43.5265 72.619L 45.2335 73.6613L 47.3898 70.1296L 45.6828 69.0874ZM 44.5569 72.1559L 22.9011 68.2632L 22.5473 70.2316L 44.2031 74.1244L 44.5569 72.1559ZM 23.7237 69.2767L 24.011 59.493L 22.0119 59.4343L 21.7246 69.218L 23.7237 69.2767ZM 56.9976 70.5268L 80.5225 60.3819L 79.7305 58.5454L 56.2056 68.6903L 56.9976 70.5268ZM 79.1269 59.4931L 79.4153 69.2769L 81.4145 69.2179L 81.126 59.4342L 79.1269 59.4931ZM 80.238 68.2632L 65.6212 70.8902L 65.975 72.8587L 80.5918 70.2316L 80.238 68.2632ZM 65.6212 70.8903L 58.581 72.1559L 58.9349 74.1244L 65.975 72.8587L 65.6212 70.8903ZM 59.6114 72.619L 57.4551 69.0874L 55.7481 70.1296L 57.9045 73.6613L 59.6114 72.619Z"/>
</defs>
</svg>
